HIERARCHY
ROOT Hips
{
	OFFSET 0.000000 0.000000 0.000000
	CHANNELS 6 Xposition Yposition Zposition Zrotation Yrotation Xrotation 
	JOINT LowerBack
	{
		OFFSET 0.000000 0.000000 0.000000
		CHANNELS 3 Zrotation Yrotation Xrotation
		JOINT Spine
		{
			OFFSET 0.028270 2.035590 -0.193380
			CHANNELS 3 Zrotation Yrotation Xrotation
			JOINT Spine1
			{
				OFFSET 0.056720 2.048850 -0.042750
				CHANNELS 3 Zrotation Yrotation Xrotation
				JOINT Neck
				{
					OFFSET 0.000000 0.000000 0.000000
					CHANNELS 3 Zrotation Yrotation Xrotation
					JOINT Neck1
					{
						OFFSET -0.054170 1.746240 0.172020
						CHANNELS 3 Zrotation Yrotation Xrotation
						JOINT Head
						{
							OFFSET 0.104070 1.761360 -0.123970
							CHANNELS 3 Zrotation Yrotation Xrotation
							End Site
							{
								OFFSET 0.000000 0.000000 0.000000
							}
						}
					}
				}
				JOINT LeftShoulder
				{
					OFFSET 0.000000 0.000000 0.000000
					CHANNELS 3 Zrotation Yrotation Xrotation
					JOINT LeftArm
					{
						OFFSET 3.362410 1.200890 -0.311210
						CHANNELS 3 Zrotation Yrotation Xrotation
						JOINT LeftForeArm
						{
							OFFSET 4.983000 -0.000000 -0.000000
							CHANNELS 3 Zrotation Yrotation Xrotation
							JOINT LeftHand
							{
								OFFSET 3.483560 -0.000000 -0.000000
								CHANNELS 3 Zrotation Yrotation Xrotation
								JOINT LeftFingerBase
								{
									OFFSET 0.000000 0.000000 0.000000
									CHANNELS 3 Zrotation Yrotation Xrotation
									JOINT LeftHandIndex1
									{
										OFFSET 0.715260 -0.000000 -0.000000
										CHANNELS 3 Zrotation Yrotation Xrotation
										End Site
										{
											OFFSET 0.000000 0.000000 0.000000
										}
									}
								}
								JOINT LThumb
								{
									OFFSET 0.000000 0.000000 0.000000
									CHANNELS 3 Zrotation Yrotation Xrotation
									End Site
									{
										OFFSET 0.000000 0.000000 0.000000
									}
								}
							}
						}
					}
				}
				JOINT RightShoulder
				{
					OFFSET 0.000000 0.000000 0.000000
					CHANNELS 3 Zrotation Yrotation Xrotation
					JOINT RightArm
					{
						OFFSET -3.136600 1.374050 -0.404650
						CHANNELS 3 Zrotation Yrotation Xrotation
						JOINT RightForeArm
						{
							OFFSET -5.241900 -0.000000 -0.000000
							CHANNELS 3 Zrotation Yrotation Xrotation
							JOINT RightHand
							{
								OFFSET -3.444170 -0.000000 -0.000000
								CHANNELS 3 Zrotation Yrotation Xrotation
								JOINT RightFingerBase
								{
									OFFSET 0.000000 0.000000 0.000000
									CHANNELS 3 Zrotation Yrotation Xrotation
									JOINT RightHandIndex1
									{
										OFFSET -0.622530 -0.000000 -0.000000
										CHANNELS 3 Zrotation Yrotation Xrotation
										End Site
										{
											OFFSET 0.000000 0.000000 0.000000
										}
									}
								}
								JOINT RThumb
								{
									OFFSET 0.000000 0.000000 0.000000
									CHANNELS 3 Zrotation Yrotation Xrotation
									End Site
									{
										OFFSET 0.000000 0.000000 0.000000
									}
								}
							}
						}
					}
				}
			}
		}
	}
}
}
MOTION
Frames: 18
Frame Time: 0.008333
1.848033 17.467028 2.437802 -166.302331 -80.264962 -173.309933 0.840811 -2.127453 0.831125 -0.808743 -2.233980 -2.840311 -8.166089 -2.341660 0.378195 11.140560 -0.854704 -3.954015 -4.315980 -0.342205 0.835824 0.000000 0.000000 0.000000 -5.423259 2.561332 3.056552 -55.179245 -15.572792 12.094269 -3.539875 -47.302095 0.027373 -8.775641 -1.825057 0.151049 -0.085735 0.142825 0.000000 0.000000 0.000000 0.000000 0.000000 0.000000 0.000000 19.321155 -0.067967 1.608443 66.199200 4.652680 -13.721480 3.574480 14.133788 0.018121 3.638631 10.500575 0.332621 0.060936 -0.099174 0.000000 0.000000 0.000000 0.000000 0.000000 0.000000 0.000000 
1.596483 17.448739 2.419034 -166.364097 -80.908530 -173.402695 1.112257 -2.380847 0.875099 -0.754445 -2.502990 -2.813938 -8.235150 -2.603603 0.395518 11.319351 -1.072409 -3.936217 -4.333144 -0.343429 0.844786 0.000000 0.000000 0.000000 -4.775857 2.053928 3.119847 -54.006235 -17.192647 12.615825 -3.405590 -49.360003 0.030126 -8.815165 -1.828453 0.153494 -0.080013 0.160740 0.000000 0.000000 0.000000 0.000000 0.000000 0.000000 0.000000 19.585858 -0.449214 1.652744 66.202448 3.332293 -14.799680 3.596199 13.238515 0.017846 3.586655 10.472636 0.326598 0.062027 -0.094113 0.000000 0.000000 0.000000 0.000000 0.000000 0.000000 0.000000 
1.345485 17.420727 2.394942 -167.176890 -81.587835 -172.720837 1.238725 -2.636312 0.894201 -0.732095 -2.767401 -2.787082 -8.306403 -2.859725 0.427303 11.530047 -1.391716 -3.944413 -4.352607 -0.344787 0.846427 0.000000 0.000000 0.000000 -4.055999 1.524176 3.173708 -52.675213 -18.807755 13.011113 -3.258193 -51.332012 0.032770 -8.850196 -1.816962 0.154724 -0.073192 0.178448 -0.000000 0.000000 0.000000 0.000000 0.000000 0.000000 0.000000 19.915192 -0.930651 1.689678 66.152009 2.003833 -15.457652 3.615550 12.649114 0.017562 3.543505 10.442311 0.321377 0.063044 -0.088738 0.000000 0.000000 0.000000 0.000000 0.000000 0.000000 0.000000 
1.094712 17.383200 2.365919 -168.880691 -82.298066 -171.116657 1.236507 -2.891189 0.882997 -0.738457 -3.026077 -2.761715 -8.376764 -3.109074 0.470210 11.759960 -1.795314 -3.973902 -4.372890 -0.346227 0.842197 0.000000 0.000000 0.000000 -3.275202 0.973973 3.216498 -51.193364 -20.405768 13.268015 -3.097975 -53.205069 0.035328 -8.884966 -1.796883 0.155237 -0.065106 0.195948 -0.000000 0.000000 0.000000 0.000000 0.000000 0.000000 0.000000 20.287079 -1.495468 1.716933 66.071837 0.654067 -15.796703 3.633215 12.354624 0.017285 3.521323 10.414505 0.318259 0.063930 -0.083142 0.000000 0.000000 0.000000 0.000000 0.000000 0.000000 0.000000 
0.844008 17.336484 2.332619 -171.639131 -83.035497 -168.425300 1.130703 -3.145409 0.843090 -0.768367 -3.280476 -2.738154 -8.442832 -3.353176 0.522149 11.996028 -2.270802 -4.022633 -4.392447 -0.347652 0.832758 0.000000 0.000000 0.000000 -2.451004 0.409914 3.247074 -49.566333 -21.981471 13.376733 -2.926566 -54.966064 0.037827 -8.924448 -1.773374 0.155637 -0.055629 0.213282 -0.000000 0.000000 0.000000 0.000000 0.000000 0.000000 0.000000 20.679955 -2.132644 1.732998 65.977586 -0.715929 -15.907684 3.649439 12.333278 0.017029 3.523912 10.392983 0.317543 0.064690 -0.077460 0.000000 0.000000 0.000000 0.000000 0.000000 0.000000 0.000000 
0.593224 17.281081 2.295802 -175.706168 -83.797016 -164.397333 0.945090 -3.402248 0.786507 -0.816493 -3.534662 -2.713693 -8.498872 -3.595938 0.584101 12.227069 -2.846303 -4.097376 -4.408909 -0.348839 0.816380 0.000000 0.000000 0.000000 -1.584193 -0.184259 3.258023 -47.823550 -23.494809 13.301316 -2.743417 -56.616695 0.040306 -8.983218 -1.746973 0.156118 -0.044238 0.230412 -0.000000 0.000000 0.000000 0.000000 0.000000 0.000000 0.000000 21.074862 -2.876986 1.739068 65.867109 -2.048115 -15.780406 3.663709 12.526868 0.016812 3.513715 10.392063 0.316331 0.065572 -0.071877 0.000000 0.000000 0.000000 0.000000 0.000000 0.000000 0.000000 
0.341939 17.217480 2.256255 178.618395 -84.584802 -158.735850 0.722365 -3.667121 0.716305 -0.873471 -3.796068 -2.688901 -8.541612 -3.845146 0.652294 12.440731 -3.489582 -4.192266 -4.420163 -0.349661 0.794816 0.000000 0.000000 0.000000 -0.697191 -0.792980 3.251406 -45.971038 -24.944471 13.051989 -2.552943 -58.142961 0.042803 -9.059790 -1.719983 0.156884 -0.031050 0.247438 -0.000000 0.000000 0.000000 0.000000 0.000000 0.000000 0.000000 21.445553 -3.696469 1.734604 65.757001 -3.359534 -15.539884 3.675647 12.908354 0.016643 3.502974 10.405407 0.315520 0.066516 -0.066528 0.000000 0.000000 0.000000 0.000000 0.000000 0.000000 0.000000 
0.089963 17.146326 2.214669 170.895681 -85.384294 -151.020554 0.509292 -3.942307 0.651143 -0.928948 -4.068431 -2.661246 -8.568951 -4.104868 0.722928 12.628748 -4.174556 -4.303201 -4.424261 -0.349952 0.769144 0.000000 0.000000 0.000000 0.192338 -1.401896 3.228743 -44.017033 -26.325914 12.635730 -2.359079 -59.534960 0.045352 -9.154041 -1.693446 0.157935 -0.016141 0.264415 -0.000000 0.000000 0.000000 0.000000 0.000000 0.000000 0.000000 21.771835 -4.562828 1.721013 65.659133 -4.655457 -15.278694 3.684796 13.445200 0.016524 3.499069 10.424679 0.315412 0.067501 -0.061551 0.000000 0.000000 0.000000 0.000000 0.000000 0.000000 0.000000 
-0.162582 17.068280 2.171660 160.678869 -86.133357 -140.836880 0.344273 -4.217245 0.624883 -0.973202 -4.341576 -2.624278 -8.576602 -4.365253 0.795834 12.785589 -4.930501 -4.438032 -4.417812 -0.349346 0.737199 0.000000 0.000000 0.000000 1.096961 -2.019859 3.179537 -42.011373 -27.587115 12.027716 -2.161741 -60.803027 0.047977 -9.278858 -1.664066 0.159267 0.001003 0.281141 -0.000000 0.000000 0.000000 0.000000 0.000000 0.000000 0.000000 22.034348 -5.502026 1.703909 65.567934 -5.861550 -14.956274 3.690482 14.055490 0.016492 3.463548 10.461841 0.313007 0.068781 -0.057185 0.000000 0.000000 0.000000 0.000000 0.000000 0.000000 0.000000 
-0.416365 16.984212 2.127899 148.037848 -86.717575 -128.273693 0.242443 -4.466155 0.650637 -1.001507 -4.589972 -2.578234 -8.567090 -4.602045 0.864122 12.907058 -5.696155 -4.586291 -4.400035 -0.347760 0.701714 0.000000 0.000000 0.000000 1.981882 -2.595025 3.109832 -39.939269 -28.747062 11.268672 -1.966566 -61.937473 0.050640 -9.421739 -1.633262 0.160782 0.019784 0.297498 -0.000000 0.000000 0.000000 0.000000 0.000000 0.000000 0.000000 22.218726 -6.432801 1.685902 65.502435 -7.024645 -14.719926 3.693446 14.729072 0.016541 3.440618 10.494561 0.311705 0.070160 -0.053559 0.000000 0.000000 0.000000 0.000000 0.000000 0.000000 0.000000 
-0.671690 16.895183 2.084038 133.924118 -87.022204 -114.302432 0.146598 -4.672335 0.743261 -1.023746 -4.793634 -2.521004 -8.536868 -4.796030 0.926860 12.991678 -6.479911 -4.750377 -4.369239 -0.344997 0.661987 0.000000 0.000000 0.000000 2.846368 -3.116106 3.015814 -37.832374 -29.771119 10.362604 -1.775683 -62.951086 0.053327 -9.587251 -1.599775 0.162278 0.040137 0.313141 -0.000000 0.000000 0.000000 0.000000 0.000000 0.000000 0.000000 22.316127 -7.356496 1.671125 65.457004 -8.098603 -14.547548 3.693732 15.403037 0.016682 3.414761 10.528137 0.310007 0.071719 -0.050777 0.000000 0.000000 0.000000 0.000000 0.000000 0.000000 0.000000 
-0.928863 16.802575 2.040632 120.052440 -87.026359 -100.645564 0.001629 -4.847257 0.905832 -1.051357 -4.961870 -2.452677 -8.485111 -4.956724 0.981814 13.041466 -7.255872 -4.922946 -4.326366 -0.341157 0.619805 0.000000 0.000000 0.000000 3.671279 -3.573420 2.906210 -35.692378 -30.658105 9.340004 -1.593874 -63.846847 0.056024 -9.769932 -1.564238 0.163856 0.061421 0.327940 -0.000000 0.000000 0.000000 0.000000 0.000000 0.000000 0.000000 22.330497 -8.251421 1.659697 65.433884 -9.091389 -14.483473 3.691629 16.053461 0.016878 3.403220 10.551970 0.309510 0.073300 -0.048736 0.000000 0.000000 0.000000 0.000000 0.000000 0.000000 0.000000 
-1.188600 16.707936 1.998028 107.839984 -86.798370 -88.702476 -0.185663 -5.013803 1.119010 -1.083561 -5.119368 -2.376933 -8.414040 -5.108643 1.030964 13.059449 -8.005708 -5.097830 -4.273796 -0.336479 0.576892 0.000000 0.000000 0.000000 4.436477 -3.966262 2.790476 -33.525828 -31.405363 8.234737 -1.425025 -64.633880 0.058735 -9.965058 -1.527978 0.165325 0.082963 0.341863 -0.000000 0.000000 0.000000 0.000000 0.000000 0.000000 0.000000 22.272738 -9.110851 1.649129 65.425247 -10.006960 -14.540679 3.688740 16.656935 0.017102 3.414526 10.561634 0.310615 0.074829 -0.047262 0.000000 0.000000 0.000000 0.000000 0.000000 0.000000 0.000000 
-1.451603 16.612732 1.956265 97.784597 -86.424935 -78.942403 -0.376321 -5.184133 1.354472 -1.112855 -5.281457 -2.298738 -8.327651 -5.266870 1.079074 13.050045 -8.730662 -5.273906 -4.214016 -0.331181 0.533720 0.000000 0.000000 0.000000 5.135493 -4.298731 2.672713 -31.360435 -32.000959 7.076992 -1.270981 -65.327947 0.061449 -10.171194 -1.492007 0.166886 0.104295 0.354798 -0.000000 0.000000 0.000000 0.000000 0.000000 0.000000 0.000000 22.156549 -9.943876 1.637613 65.416079 -10.828565 -14.689457 3.686851 17.184337 0.017351 3.440136 10.560156 0.312820 0.076361 -0.046229 0.000000 0.000000 0.000000 0.000000 0.000000 0.000000 0.000000 
-1.720296 16.523449 1.915718 78.461097 -85.761365 -59.872029 -0.430189 -5.572889 1.543506 -1.091993 -5.674409 -2.230320 -8.237290 -5.663867 1.137765 13.049796 -9.405223 -5.439656 -4.170119 -0.327055 0.497026 0.000000 0.000000 0.000000 5.677927 -4.701854 2.596413 -29.148910 -32.486783 5.922863 -1.149360 -65.931724 0.064782 -10.379045 -1.460827 0.168966 0.124402 0.370140 0.000000 0.000000 0.000000 0.000000 0.000000 0.000000 0.000000 22.109958 -10.864175 1.586696 65.313116 -11.603036 -14.948030 3.679755 17.656862 0.017312 3.493728 10.531756 0.316817 0.076844 -0.044121 0.000000 0.000000 0.000000 0.000000 0.000000 0.000000 0.000000 
-1.991809 16.431310 1.874989 73.458088 -85.205595 -55.128570 -0.528314 -5.754136 1.729768 -1.097333 -5.855353 -2.164875 -8.140551 -5.844027 1.191490 13.001046 -10.038159 -5.605172 -4.108178 -0.321597 0.456984 0.000000 0.000000 0.000000 6.210219 -4.897007 2.491268 -27.023832 -32.781511 4.771195 -1.027861 -66.493244 0.067381 -10.589095 -1.431969 0.170822 0.143622 0.380860 0.000000 0.000000 0.000000 0.000000 0.000000 0.000000 0.000000 21.938359 -11.604764 1.565680 65.269546 -12.258511 -15.269274 3.683919 18.021279 0.017565 3.555888 10.500557 0.321521 0.078325 -0.043605 0.000000 0.000000 0.000000 0.000000 0.000000 0.000000 0.000000 
-2.268871 16.342237 1.834565 69.558760 -84.697992 -51.418672 -0.542114 -5.926801 1.833815 -1.084078 -6.033106 -2.117141 -8.048746 -6.022214 1.252719 12.934888 -10.607919 -5.760182 -4.050736 -0.316553 0.420336 0.000000 0.000000 0.000000 6.642892 -5.009662 2.399312 -24.942342 -32.924215 3.677772 -0.922290 -67.022532 0.069809 -10.791744 -1.411033 0.173082 0.161044 0.390254 0.000000 0.000000 0.000000 0.000000 0.000000 0.000000 0.000000 21.762229 -12.275049 1.537442 65.192340 -12.846927 -15.661118 3.694172 18.311447 0.017829 3.635129 10.452473 0.327125 0.079881 -0.043272 0.000000 0.000000 0.000000 0.000000 0.000000 0.000000 0.000000 
-2.552191 16.257111 1.794503 66.483766 -84.266698 -48.446658 -0.460204 -6.085187 1.837743 -1.050219 -6.201811 -2.090534 -7.966605 -6.192314 1.323369 12.851074 -11.110619 -5.902992 -4.001037 -0.312204 0.387610 0.000000 0.000000 0.000000 6.968748 -5.036224 2.324165 -22.922555 -32.916251 2.669634 -0.832001 -67.542410 0.072002 -10.983316 -1.400404 0.175949 0.176341 0.398238 0.000000 0.000000 0.000000 0.000000 0.000000 0.000000 0.000000 21.594032 -12.868835 1.500656 65.069381 -13.368958 -16.094200 3.711267 18.531755 0.018111 3.720994 10.392447 0.332930 0.081563 -0.043081 0.000000 0.000000 0.000000 0.000000 0.000000 0.000000 0.000000 
